<svg width="23" height="23" viewBox="0 0 23 23" fill="none" xmlns="http://www.w3.org/2000/svg">
<path d="M20.1248 0.699088H17.7889V0H12.9373V0.699088H10.6014V13.782H14.5545V10.9857H16.1717V13.782H20.1248V0.699088ZM13.7459 9.48763H12.0389V7.78984H13.7459V9.48763ZM13.7459 6.89101H12.0389V4.99349H13.7459V6.89101ZM13.7459 4.19453H12.0389V2.49674H13.7459V4.19453ZM16.1717 9.48763H14.5545V7.78984H16.1717V9.48763ZM16.1717 6.89101H14.5545V4.99349H15.3002H15.3092H16.1627V6.89101H16.1717ZM16.1717 4.19453H15.3182H15.3092H14.5545V2.49674H15.3002H15.3092H16.1627V4.19453H16.1717ZM18.6873 9.48763H17.0701V7.78984H18.6873V9.48763ZM18.6873 6.89101H17.0881H17.0701V4.99349H18.6873V6.89101ZM18.6873 4.19453H17.0701V2.49674H18.6873V4.19453ZM22.8739 15.4099C22.5775 14.5111 21.4904 14.0117 20.6908 14.3413L14.9408 16.7082C14.9858 17.1476 14.9768 17.8867 14.8061 18.2861C14.3299 19.4446 12.9284 19.964 11.8952 19.4347L8.05889 17.5172L8.31943 16.7881L12.1557 18.7056C12.9373 19.0651 13.8807 18.6756 14.1862 17.8068C14.303 17.5371 14.3479 17.2275 14.3119 16.9679C14.3209 16.6782 14.2221 16.3786 14.0873 16.1489C13.8987 15.8893 13.6741 15.6895 13.3776 15.5297L6.40578 12.0942C5.79485 11.7047 5.05814 11.5549 4.32143 11.7447C4.15972 11.7846 4.00698 11.8346 3.86324 11.9145L3.84527 11.9244L3.8273 11.9444L2.5695 13.1329L0 15.5497V23L3.27926 19.5345L10.2151 21.8615C10.7991 22.0712 11.4639 22.0812 11.985 21.8615L21.8497 17.7968C22.9638 17.3574 23.1794 16.3087 22.8739 15.4099Z" fill="white"/>
</svg>
