<svg width="17" height="25" viewBox="0 0 17 25" fill="none" xmlns="http://www.w3.org/2000/svg">
<path d="M14.5103 10.5828H13.0579L9.14796 18.0094L10.3207 13.8452L9.06419 12.7464L10.3207 11.4973L8.5505 10L6.72487 11.5516L7.98138 12.7493L6.72487 13.8985L7.89515 17.8969L4.0628 10.5867H2.49093C1.82538 10.5921 1.18964 10.8048 0.722825 11.1783C0.256011 11.5518 -0.00385643 12.0556 8.80591e-05 12.5796V22.0892C-0.00549024 22.6145 0.254159 23.1201 0.721945 23.4947C1.18973 23.8693 1.82736 24.0823 2.49463 24.087H14.514C15.1799 24.0808 15.8155 23.8671 16.2815 23.4926C16.7475 23.1181 17.0058 22.6134 16.9999 22.0892V12.5796C17.0055 12.0551 16.7465 11.5502 16.2797 11.1758C15.813 10.8015 15.1766 10.5882 14.5103 10.5828Z" fill="white"/>
<path d="M8.49333 9C10.9733 9 13 6.98962 13 4.5C13 2.01038 10.9866 0 8.49333 0C6.00002 0 4 2.02371 4 4.51332C4 6.98962 6.01336 9 8.49333 9ZM8.24443 4.88162C7.41783 4.59312 6.90219 4.17601 6.90219 3.43492C6.90219 2.75147 7.35545 2.21444 8.18671 2.04586V1.30477H8.80895V2.01038C9.32443 2.01038 9.69777 2.11683 9.97336 2.2634L9.71997 3.15091C9.51545 3.06662 9.18214 2.92454 8.72438 2.92454C8.26662 2.92454 8.01772 3.15091 8.01772 3.37713C8.01772 3.68779 8.30666 3.80756 8.9289 4.06058C9.77785 4.37124 10.1734 4.80167 10.1734 5.50728C10.1734 6.21289 9.74231 6.74992 8.83114 6.95398V7.65959H8.2089V6.97614C7.67107 6.97614 7.1289 6.83406 6.86666 6.68764L7.09336 5.77781C7.38229 5.91989 7.83555 6.08847 8.31565 6.08847C8.83114 6.08847 9.08453 5.8621 9.08453 5.55144C9.08453 5.24078 8.83998 5.11249 8.24443 4.88162Z" fill="white"/>
</svg>
