<svg width="20" height="18" viewBox="0 0 20 18" fill="none" xmlns="http://www.w3.org/2000/svg">
<path d="M4.84756 8.28613L1.56284 11.7886V17.6983C1.56284 17.8647 1.69444 17.9998 1.85704 17.9998H5.84532C6.00772 17.9998 6.13953 17.8647 6.13953 17.6983V8.63301L5.21964 8.28613H4.84756Z" fill="white"/>
<path d="M12.9716 11.0332H8.98329C8.82089 11.0332 8.68909 11.1683 8.68909 11.3347V17.6986C8.68909 17.865 8.82089 18 8.98329 18H12.9716C13.1342 18 13.2658 17.865 13.2658 17.6986V11.3347C13.2658 11.1683 13.1342 11.0332 12.9716 11.0332Z" fill="white"/>
<path d="M19.952 4.68022C19.7996 4.76182 19.628 4.80502 19.4557 4.80502C19.2055 4.80502 18.9613 4.71459 18.7693 4.54979L18.0447 3.9292L15.4233 6.85934V17.6984C15.4233 17.8648 15.5551 17.9999 15.7175 17.9999H19.7058C19.8684 17.9999 20 17.8648 20 17.6984V4.64947C19.9836 4.65952 19.9688 4.67118 19.952 4.68022Z" fill="white"/>
<path d="M11.3362 9.62499C11.5606 9.7092 11.8116 9.6467 11.9732 9.46663L18.0219 2.70541L19.4375 3.91765C19.5067 3.97674 19.6036 3.98779 19.6834 3.94499C19.7633 3.90198 19.8101 3.81476 19.8021 3.72251L19.4953 0.207755C19.4845 0.0821494 19.3765 -0.0104977 19.2539 0.000957587L15.8234 0.315073C15.7336 0.323313 15.6575 0.386216 15.6308 0.47404C15.6216 0.503382 15.6187 0.533125 15.6212 0.562467C15.6263 0.621552 15.654 0.677421 15.7003 0.717012L17.1181 1.93147L11.3721 8.35386L4.81222 5.88073C4.59294 5.79833 4.34679 5.85641 4.18497 6.02844L0.164138 10.3157C-0.0610293 10.5559 -0.053576 10.9377 0.180613 11.1682C0.294962 11.281 0.441869 11.3364 0.588385 11.3364C0.742942 11.3364 0.897106 11.2743 1.01283 11.1514L4.76711 7.14804L11.3362 9.62499Z" fill="white"/>
</svg>
